<svg xmlns="http://www.w3.org/2000/svg" xmlns:xlink="http://www.w3.org/1999/xlink" width="96" height="96" viewBox="0 0 96 96">
  <defs>
    <clipPath id="clip-path">
      <rect id="Rectángulo_456063" data-name="Rectángulo 456063" width="58.542" height="62.35" fill="#754114"/>
    </clipPath>
  </defs>
  <g id="Grupo_1213591" data-name="Grupo 1213591" transform="translate(-383.746 -8400.001)">
    <path id="Trazado_997400" data-name="Trazado 997400" d="M48,0A48,48,0,1,1,0,48,48,48,0,0,1,48,0Z" transform="translate(383.746 8400.001)" fill="#fee85b"/>
    <g id="Grupo_1099776" data-name="Grupo 1099776" transform="translate(401.746 8418)">
      <g id="Grupo_1099618" data-name="Grupo 1099618" transform="translate(-1.566 2.215)">
        <rect id="Rectángulo_401104" data-name="Rectángulo 401104" width="59.378" height="60.093" transform="translate(0)" fill="none"/>
      </g>
      <g id="Grupo_1213973" data-name="Grupo 1213973" transform="translate(-1.566 1.215)">
        <g id="Grupo_1213972" data-name="Grupo 1213972" clip-path="url(#clip-path)">
          <path id="Trazado_1004064" data-name="Trazado 1004064" d="M227.486,13.318,228.9,62.345l-17.26,0,1.406-48.912,3.266-7.42.093-2.42,1.394,0,.015-3.578L222.7,0l.031,3.559,1.411.048.022,2.414a1.921,1.921,0,0,0,.4.6Zm-8.343-9.74h2.242V1.347h-2.242ZM217.7,6.354h5.108V4.885H217.7Zm8.1,6.562-2.207-5.2-6.647-.006-2.238,5.234Zm1.633,44.69-2.237.013.031-1.326,2.153-.043-.714-25.362-.456-16.6-11.868,0-1.2,41.989,10.7.006-.028,1.334-10.717,0-.1,3.376H227.54Z" transform="translate(-170.356)" fill="#754114"/>
          <path id="Trazado_1004065" data-name="Trazado 1004065" d="M36.972,164.69a3.008,3.008,0,0,1,.249,3.065,2.963,2.963,0,0,1-2.5,1.709l-3.8.067,0,12.382-4.1.021-.02-10.565-10.9.007a5.651,5.651,0,0,1-3.282-1.071,7.139,7.139,0,0,0-3.733-1.478L.021,168.78l0-1.32,8.086,0a8.362,8.362,0,0,1,5.14,1.677,4.68,4.68,0,0,0,2.653.907l10.789-.008c.706-1.007-1.468-.974-1.8-2.95a3.069,3.069,0,0,1,1.055-3,3.113,3.113,0,0,1-.439-4.318,4.746,4.746,0,0,1-.979-3.044l.024-4.51,1.3.011.029,5.077a2.265,2.265,0,0,0,2.781,2.2l0-7.1a2.554,2.554,0,0,0-2.4-2.5l-6.451.018c-2.52.007-4.54,1.387-6.233,3.086a11.161,11.161,0,0,1-7.813,3.446l-5.748.038L0,155.148l5.584-.04a10.089,10.089,0,0,0,7.242-3.231,10.138,10.138,0,0,1,7.567-3.314l6.009.051c2.592.022,4.066,2.642,3.53,5.22l2.281.082.042,1.292-2.239.027.007,3.425,3.442-.012,0,1.345-3.565-.02a2.351,2.351,0,0,1-3.192.6c-.521.265-.623,1.188-.39,1.8a1.79,1.79,0,0,0,1.667,1.023l4.255-.014v1.345l-4.23,0a1.712,1.712,0,0,0-.312,3.409l6.9.012a1.705,1.705,0,0,0,1.6-1.77,1.781,1.781,0,0,0-1.7-1.674l0-1.308,2.465-.1c1.071-.043,1.332-1.384,1.134-2.142-.265-1.019-1.275-1.126-2.273-1.169l-.647-.028c-.2-.008-.155-1.3-.013-1.3l.64.009c1,.014,1.816-.189,2.217-1.048a1.649,1.649,0,0,0-.883-2.241,10.512,10.512,0,0,0-2.606-.155l-.014-1.346a1.7,1.7,0,0,0,.3-3.371l-3.615-.085V149.1l3.462.037a3.04,3.04,0,0,1,2.535,1.645,3,3,0,0,1-.21,3.155,3.044,3.044,0,0,1,1.378,5.391,2.943,2.943,0,0,1,1.077,3.029,3.115,3.115,0,0,1-2.449,2.336m-7.373,4.8H28.124v8.166H29.6Zm-1.478,11.091H29.6V179H28.122Z" transform="translate(0 -119.583)" fill="#754114"/>
          <path id="Trazado_1004066" data-name="Trazado 1004066" d="M130.777,16.082a4.62,4.62,0,0,0,.052,1.48l2.02,4.632.02,7.747-1.333.007,0-7.4-2.1-4.8-.011-13.651-1.465-.02-.008,1.778-1.318.045.007-3.155,4.056,0,.085.894,4.756-.017a2.708,2.708,0,0,1,2.839-.727,2.515,2.515,0,0,1,1.757,2.3l.046,10.026a2,2,0,0,0,2.037,1.906l.082,1.363-2.235-.051a5.378,5.378,0,0,1-4.117-2.335Zm8.462.845-.418-1.981.019-9.523a1.287,1.287,0,0,0-1.381-1.36A1.365,1.365,0,0,0,136.2,5.386l0,7.408a4.356,4.356,0,0,0,3.03,4.133M130.744,4.917l-.016,1.427,4.172.047.016-1.427Zm0,4.244H134.9V7.7h-4.158Zm0,1.294,0,1.523,4.16.011,0-1.523Zm4.44,4.26-.3-1.427-4.072-.013-.056,1.437Z" transform="translate(-101.938 -2.198)" fill="#754114"/>
          <path id="Trazado_1004067" data-name="Trazado 1004067" d="M130.025,49.082l-1.31.024.009-7.394L126.6,36.806V26.534l1.322,0,.012,10.053,2.1,4.771Z" transform="translate(-101.903 -21.356)" fill="#754114"/>
          <path id="Trazado_1004068" data-name="Trazado 1004068" d="M71.129,177.146l-.062-1.3a8.745,8.745,0,0,0,8.652-8.613l1.329.011a9.993,9.993,0,0,1-9.919,9.9" transform="translate(-57.205 -134.614)" fill="#754114"/>
          <path id="Trazado_1004069" data-name="Trazado 1004069" d="M63.385,83.638a2.524,2.524,0,1,1-2.524-2.524,2.524,2.524,0,0,1,2.524,2.524m-1.323.01a1.193,1.193,0,1,0-1.193,1.193,1.193,1.193,0,0,0,1.193-1.193" transform="translate(-46.957 -65.292)" fill="#754114"/>
          <path id="Trazado_1004070" data-name="Trazado 1004070" d="M83.392,117.567a1.847,1.847,0,1,1-1.847-1.847,1.847,1.847,0,0,1,1.847,1.847" transform="translate(-64.153 -93.148)" fill="#754114"/>
          <path id="Trazado_1004071" data-name="Trazado 1004071" d="M94.607,39.125A1.927,1.927,0,1,1,92.681,37.2a1.927,1.927,0,0,1,1.927,1.927m-1.336-.007a.595.595,0,1,0-.595.595.595.595,0,0,0,.595-.595" transform="translate(-73.051 -29.942)" fill="#754114"/>
          <path id="Trazado_1004072" data-name="Trazado 1004072" d="M250.248,150.109l-2.5-.136a5.366,5.366,0,0,1-4.862-5.363l-.021-7.767a2.658,2.658,0,0,1,2.591-2.555,2.61,2.61,0,0,1,2.681,2.533l.005,9.564a2.222,2.222,0,0,0,2.1,2.36Zm-2.992-1.589-.433-1.733-.012-10.036c0-.769-.983-1.245-1.535-1.121a1.368,1.368,0,0,0-1.083,1.4l.011,7.4a4.348,4.348,0,0,0,3.052,4.086" transform="translate(-195.491 -108.094)" fill="#754114"/>
          <rect id="Rectángulo_456059" data-name="Rectángulo 456059" width="1.276" height="1.298" transform="translate(49.275 48.133)" fill="#754114"/>
          <rect id="Rectángulo_456060" data-name="Rectángulo 456060" width="1.276" height="1.261" transform="translate(49.275 18.966)" fill="#754114"/>
          <rect id="Rectángulo_456061" data-name="Rectángulo 456061" width="1.276" height="1.272" transform="translate(49.275 22.607)" fill="#754114"/>
          <rect id="Rectángulo_456062" data-name="Rectángulo 456062" width="1.276" height="1.278" transform="translate(49.27 45.762) rotate(-89.746)" fill="#754114"/>
        </g>
      </g>
    </g>
  </g>
</svg>
